<svg width="213" height="48" viewBox="0 0 213 48" fill="none" xmlns="http://www.w3.org/2000/svg">
<g clip-path="url(#clip0_653_970)">
<path d="M26.0343 35.1807C25.3172 35.8991 25.3172 37.066 26.0343 37.7844C26.7527 38.5015 27.9209 38.5015 28.638 37.7844L37.783 28.6381C40.5658 25.8566 41.2962 21.6035 39.5994 18.0549C39.147 17.1045 38.5355 16.2418 37.783 15.4899C37.0305 14.7368 36.167 14.1259 35.2167 13.6721C33.9409 13.0627 32.5756 12.7666 31.2189 12.7666C28.8017 12.7666 26.4165 13.7062 24.6342 15.4886L15.4891 24.6343C15.141 24.9825 14.9498 25.4443 14.9498 25.9368C14.9498 26.428 15.141 26.8898 15.4891 27.238C15.6636 27.4111 15.8654 27.5461 16.0853 27.6383C16.3051 27.7292 16.5437 27.7773 16.7903 27.7773C17.2829 27.7773 17.7447 27.5848 18.0915 27.238L27.2379 18.093C27.3441 17.9867 27.4544 17.8851 27.5667 17.7895C27.5981 17.7615 27.6308 17.7354 27.6636 17.7087C27.6997 17.6786 27.7371 17.6492 27.7745 17.6205C27.8494 17.5623 27.9242 17.5069 28.0017 17.4534C30.0695 16.0119 32.8997 16.1241 34.8505 17.7895C34.9627 17.8851 35.073 17.9867 35.1793 18.093C37.3693 20.283 37.3693 23.8457 35.1806 26.0357L26.0343 35.1807Z" fill="white"/>
<path d="M10.2149 19.3614C7.43343 22.1428 6.70297 26.3959 8.39845 29.9439C8.62434 30.4191 8.89166 30.8728 9.19573 31.3006C9.49914 31.7296 9.84064 32.1339 10.2162 32.5102C10.9687 33.2627 11.8322 33.8728 12.7825 34.328C14.0569 34.9375 15.4236 35.2328 16.7803 35.2328C19.1962 35.2328 21.5827 34.2932 23.365 32.5109L32.5101 23.3658C32.5816 23.2943 32.6464 23.2168 32.7045 23.1359C32.7192 23.1166 32.7326 23.0972 32.7446 23.0778C32.7613 23.0524 32.7787 23.027 32.7927 23.0003C32.8088 22.9735 32.8228 22.9468 32.8375 22.9207C32.8509 22.894 32.8643 22.8673 32.8776 22.8399C32.9003 22.7918 32.9211 22.743 32.9378 22.6935C32.9438 22.6788 32.9485 22.6648 32.9525 22.6501C32.9685 22.6053 32.9812 22.5605 32.9926 22.5144C32.9939 22.5111 32.9952 22.5071 32.9952 22.5037C33.0026 22.475 33.0086 22.4456 33.0146 22.4168C33.0206 22.3854 33.0267 22.354 33.0307 22.3213C33.034 22.2945 33.038 22.2678 33.04 22.2418C33.046 22.1836 33.0487 22.1241 33.0487 22.0653C33.0487 22.0058 33.046 21.947 33.04 21.8889C33.0373 21.8622 33.034 21.8348 33.0307 21.808C33.0273 21.7766 33.0213 21.7452 33.0146 21.7151C33.0086 21.6864 33.0026 21.657 32.9952 21.6283C32.9832 21.5748 32.9672 21.5233 32.9505 21.4725C32.9478 21.4639 32.9445 21.4545 32.9411 21.4445C32.9231 21.3923 32.9023 21.3416 32.8783 21.2908C32.8649 21.264 32.8516 21.2366 32.8382 21.2099C32.8235 21.1832 32.8095 21.1564 32.7934 21.131C32.778 21.1043 32.762 21.0789 32.7453 21.0535C32.7286 21.0281 32.7112 21.0027 32.6918 20.9773C32.6591 20.9299 32.6217 20.8851 32.5829 20.843C32.5602 20.8163 32.5348 20.7895 32.5094 20.7641C32.484 20.7387 32.4573 20.7147 32.4305 20.6906C32.3871 20.6519 32.3423 20.6158 32.2962 20.5817C32.2708 20.5623 32.2467 20.5456 32.22 20.5282C32.1946 20.5115 32.1692 20.4955 32.1425 20.4801C32.1111 20.4607 32.0783 20.4427 32.0443 20.426C32.0235 20.4166 32.0028 20.4053 31.9828 20.3959C31.9286 20.3705 31.8725 20.3478 31.817 20.3284C31.7335 20.2983 31.6479 20.2749 31.5597 20.2596C31.5016 20.2489 31.4435 20.2402 31.3846 20.2342C31.267 20.2235 31.1487 20.2235 31.0318 20.2342C30.9723 20.2402 30.9142 20.2489 30.8567 20.2596C30.7985 20.2703 30.7404 20.2836 30.6836 20.3017C30.6569 20.309 30.6301 20.3184 30.6027 20.3271C30.5145 20.3585 30.4276 20.3959 30.3428 20.4407C30.2933 20.4674 30.2439 20.4962 30.1964 20.5289C30.1737 20.5436 30.1516 20.5576 30.1302 20.575C30.1256 20.5777 30.1209 20.581 30.1155 20.5844C30.0708 20.6171 30.0273 20.6519 29.9859 20.6893C29.9592 20.7133 29.9324 20.7374 29.907 20.7628L20.762 29.9078C20.232 30.4385 19.6145 30.8501 18.9409 31.1281C18.2686 31.4062 17.5408 31.5525 16.791 31.5525C15.29 31.5525 13.8799 30.9684 12.8193 29.9078C11.7587 28.8472 11.1746 27.4358 11.1746 25.9361C11.1746 24.4351 11.7587 23.0243 12.8193 21.9637L21.9643 12.8187C22.6814 12.1016 22.6814 10.9348 21.9643 10.2164C21.2459 9.49927 20.079 9.49793 19.3619 10.2164L10.2149 19.3614Z" fill="white"/>
<path d="M0 15.5955V32.4039C0 41.0183 6.9824 48.0007 15.5955 48.0007H32.4039C41.0169 48.0007 47.9993 41.0183 47.9993 32.4039V15.5955C48 6.9824 41.0169 0 32.4039 0H15.5955C6.9824 0 0 6.9824 0 15.5955ZM7.54511 16.6915L16.6915 7.54645C18.8802 5.35643 22.4442 5.35643 24.6329 7.54645C25.35 8.26353 25.8311 9.12698 26.0791 10.0412C29.4667 8.59969 33.3923 8.61506 36.8434 10.2651C38.182 10.9033 39.3963 11.7634 40.4536 12.8207C41.5095 13.8779 42.3689 15.0916 43.0078 16.4282C45.3916 21.4177 44.3658 27.3983 40.4536 31.3092L31.3085 40.4549C30.2132 41.5496 28.775 42.0969 27.3368 42.0969C25.898 42.0969 24.4598 41.5489 23.3651 40.4549V40.4536C22.648 39.7365 22.1669 38.873 21.9189 37.9575C20.2923 38.6525 18.54 39.008 16.777 39.008C14.8697 39.008 12.9483 38.5923 11.1546 37.7349C9.81733 37.0967 8.60303 36.2366 7.54578 35.1793C6.48786 34.1221 5.62909 32.9091 4.99154 31.5718C2.60704 26.5823 3.63422 20.6024 7.54511 16.6915Z" fill="white"/>
</g>
<path d="M69.8692 38.4611C67.7444 38.4611 65.6836 38.1795 63.6868 37.6163C61.7156 37.0275 60.1284 36.2723 58.9252 35.3507L61.0372 30.6659C62.1892 31.5107 63.5588 32.1891 65.146 32.7011C66.7332 33.2131 68.3204 33.4691 69.9076 33.4691C71.674 33.4691 72.9796 33.2131 73.8244 32.7011C74.6692 32.1635 75.0916 31.4595 75.0916 30.5891C75.0916 29.9491 74.8356 29.4243 74.3236 29.0147C73.8372 28.5795 73.1972 28.2339 72.4036 27.9779C71.6356 27.7219 70.586 27.4403 69.2548 27.1331C67.2068 26.6467 65.53 26.1603 64.2244 25.6739C62.9188 25.1875 61.7924 24.4067 60.8452 23.3315C59.9236 22.2563 59.4628 20.8227 59.4628 19.0307C59.4628 17.4691 59.8852 16.0611 60.73 14.8067C61.5748 13.5267 62.842 12.5155 64.5316 11.7731C66.2468 11.0307 68.3332 10.6595 70.7908 10.6595C72.506 10.6595 74.1828 10.8643 75.8212 11.2739C77.4596 11.6835 78.8932 12.2723 80.122 13.0403L78.202 17.7635C75.7188 16.3555 73.2356 15.6515 70.7524 15.6515C69.0116 15.6515 67.7188 15.9331 66.874 16.4963C66.0548 17.0595 65.6452 17.8019 65.6452 18.7235C65.6452 19.6451 66.1188 20.3363 67.066 20.7971C68.0388 21.2323 69.5108 21.6675 71.482 22.1027C73.53 22.5891 75.2068 23.0755 76.5124 23.5619C77.818 24.0483 78.9316 24.8163 79.8532 25.8659C80.8004 26.9155 81.274 28.3363 81.274 30.1283C81.274 31.6643 80.8388 33.0723 79.9684 34.3523C79.1236 35.6067 77.8436 36.6051 76.1284 37.3475C74.4132 38.0899 72.3268 38.4611 69.8692 38.4611ZM98.1439 37.0019C97.5551 37.4371 96.8255 37.7699 95.9551 38.0003C95.1103 38.2051 94.2271 38.3075 93.3055 38.3075C90.8223 38.3075 88.9151 37.6803 87.5839 36.4259C86.2527 35.1715 85.5871 33.3283 85.5871 30.8963V12.7715H91.5775V17.8019H96.6847V22.4099H91.5775V30.8195C91.5775 31.6899 91.7951 32.3683 92.2303 32.8547C92.6655 33.3155 93.2927 33.5459 94.1119 33.5459C95.0335 33.5459 95.8527 33.2899 96.5695 32.7779L98.1439 37.0019ZM122.456 17.3411V38.0003H116.735V35.6195C115.25 37.4115 113.099 38.3075 110.283 38.3075C108.338 38.3075 106.571 37.8723 104.984 37.0019C103.423 36.1315 102.194 34.8899 101.298 33.2771C100.402 31.6643 99.9538 29.7955 99.9538 27.6707C99.9538 25.5459 100.402 23.6771 101.298 22.0643C102.194 20.4515 103.423 19.2099 104.984 18.3395C106.571 17.4691 108.338 17.0339 110.283 17.0339C112.92 17.0339 114.981 17.8659 116.466 19.5299V17.3411H122.456ZM111.32 33.3923C112.831 33.3923 114.085 32.8803 115.083 31.8563C116.082 30.8067 116.581 29.4115 116.581 27.6707C116.581 25.9299 116.082 24.5475 115.083 23.5235C114.085 22.4739 112.831 21.9491 111.32 21.9491C109.784 21.9491 108.517 22.4739 107.519 23.5235C106.52 24.5475 106.021 25.9299 106.021 27.6707C106.021 29.4115 106.52 30.8067 107.519 31.8563C108.517 32.8803 109.784 33.3923 111.32 33.3923ZM138.586 38.3075C136.385 38.3075 134.401 37.8595 132.634 36.9635C130.893 36.0419 129.524 34.7747 128.525 33.1619C127.553 31.5491 127.066 29.7187 127.066 27.6707C127.066 25.6227 127.553 23.7923 128.525 22.1795C129.524 20.5667 130.893 19.3123 132.634 18.4163C134.401 17.4947 136.385 17.0339 138.586 17.0339C140.762 17.0339 142.657 17.4947 144.269 18.4163C145.908 19.3123 147.098 20.6051 147.841 22.2947L143.194 24.7907C142.119 22.8963 140.57 21.9491 138.548 21.9491C136.986 21.9491 135.693 22.4611 134.669 23.4851C133.645 24.5091 133.133 25.9043 133.133 27.6707C133.133 29.4371 133.645 30.8323 134.669 31.8563C135.693 32.8803 136.986 33.3923 138.548 33.3923C140.596 33.3923 142.145 32.4451 143.194 30.5507L147.841 33.0851C147.098 34.7235 145.908 36.0035 144.269 36.9251C142.657 37.8467 140.762 38.3075 138.586 38.3075ZM160.61 29.8979L157.73 32.7395V38.0003H151.74V9.5075H157.73V25.6355L166.485 17.3411H173.628L165.026 26.0963L174.396 38.0003H167.138L160.61 29.8979ZM185.101 38.3075C182.771 38.3075 180.954 37.6931 179.648 36.4643C178.343 35.2099 177.69 33.4435 177.69 31.1651V9.5075H183.68V30.8195C183.68 31.6899 183.898 32.3683 184.333 32.8547C184.794 33.3155 185.434 33.5459 186.253 33.5459C186.56 33.5459 186.867 33.5075 187.175 33.4307C187.507 33.3539 187.763 33.2643 187.943 33.1619L188.211 37.8083C187.213 38.1411 186.176 38.3075 185.101 38.3075ZM212.565 17.3411V34.5443C212.565 38.3331 211.605 41.1491 209.685 42.9923C207.765 44.8355 204.975 45.7571 201.314 45.7571C199.368 45.7571 197.525 45.5139 195.784 45.0275C194.069 44.5411 192.623 43.8371 191.445 42.9155L193.826 38.6147C194.696 39.3315 195.759 39.8947 197.013 40.3043C198.267 40.7139 199.535 40.9187 200.815 40.9187C202.811 40.9187 204.271 40.4579 205.192 39.5363C206.114 38.6147 206.575 37.2067 206.575 35.3123V34.6211C205.807 35.3891 204.898 35.9779 203.848 36.3875C202.799 36.7971 201.672 37.0019 200.469 37.0019C197.755 37.0019 195.605 36.2339 194.018 34.6979C192.431 33.1363 191.637 30.8067 191.637 27.7091V17.3411H197.627V26.8259C197.627 30.1795 199.023 31.8563 201.813 31.8563C203.247 31.8563 204.399 31.3955 205.269 30.4739C206.139 29.5267 206.575 28.1315 206.575 26.2883V17.3411H212.565Z" fill="white"/>
<defs>
<clipPath id="clip0_653_970">
<rect width="48" height="48.0007" fill="white"/>
</clipPath>
</defs>
</svg>
