<svg width="213" height="48" viewBox="0 0 213 48" fill="none" xmlns="http://www.w3.org/2000/svg">
<g clip-path="url(#clip0_653_962)">
<path d="M26.0346 35.1807C25.3175 35.8991 25.3175 37.066 26.0346 37.7844C26.753 38.5015 27.9212 38.5015 28.6383 37.7844L37.7833 28.6381C40.5661 25.8566 41.2966 21.6035 39.5998 18.0549C39.1473 17.1045 38.5358 16.2418 37.7833 15.4899C37.0308 14.7368 36.1674 14.1259 35.2171 13.6721C33.9413 13.0627 32.5759 12.7666 31.2193 12.7666C28.8021 12.7666 26.4169 13.7062 24.6345 15.4886L15.4895 24.6343C15.1413 24.9825 14.9502 25.4443 14.9502 25.9368C14.9502 26.428 15.1413 26.8898 15.4895 27.238C15.6639 27.4111 15.8658 27.5461 16.0856 27.6383C16.3055 27.7292 16.5441 27.7773 16.7907 27.7773C17.2832 27.7773 17.745 27.5848 18.0919 27.238L27.2382 18.093C27.3445 17.9867 27.4548 17.8851 27.567 17.7895C27.5984 17.7615 27.6312 17.7354 27.6639 17.7087C27.7 17.6786 27.7375 17.6492 27.7749 17.6205C27.8497 17.5623 27.9246 17.5069 28.0021 17.4534C30.0698 16.0119 32.9001 16.1241 34.8508 17.7895C34.9631 17.8851 35.0734 17.9867 35.1796 18.093C37.3697 20.283 37.3697 23.8457 35.181 26.0357L26.0346 35.1807Z" fill="#0E0E0C"/>
<path d="M10.215 19.3614C7.43355 22.1428 6.70309 26.3959 8.39857 29.9439C8.62446 30.4191 8.89178 30.8728 9.19586 31.3006C9.49926 31.7296 9.84076 32.1339 10.2163 32.5102C10.9689 33.2627 11.8323 33.8728 12.7826 34.328C14.0571 34.9375 15.4237 35.2328 16.7804 35.2328C19.1963 35.2328 21.5828 34.2932 23.3652 32.5109L32.5102 23.3658C32.5817 23.2943 32.6465 23.2168 32.7047 23.1359C32.7194 23.1166 32.7327 23.0972 32.7448 23.0778C32.7615 23.0524 32.7788 23.027 32.7929 23.0003C32.8089 22.9735 32.8229 22.9468 32.8376 22.9207C32.851 22.894 32.8644 22.8673 32.8777 22.8399C32.9005 22.7918 32.9212 22.743 32.9379 22.6935C32.9439 22.6788 32.9486 22.6648 32.9526 22.6501C32.9686 22.6053 32.9813 22.5605 32.9927 22.5144C32.994 22.5111 32.9954 22.5071 32.9954 22.5037C33.0027 22.475 33.0087 22.4456 33.0147 22.4168C33.0208 22.3854 33.0268 22.354 33.0308 22.3213C33.0341 22.2945 33.0381 22.2678 33.0401 22.2418C33.0462 22.1836 33.0488 22.1241 33.0488 22.0653C33.0488 22.0058 33.0462 21.947 33.0401 21.8889C33.0375 21.8622 33.0341 21.8348 33.0308 21.808C33.0274 21.7766 33.0214 21.7452 33.0147 21.7151C33.0087 21.6864 33.0027 21.657 32.9954 21.6283C32.9833 21.5748 32.9673 21.5233 32.9506 21.4725C32.9479 21.4639 32.9446 21.4545 32.9412 21.4445C32.9232 21.3923 32.9025 21.3416 32.8784 21.2908C32.865 21.264 32.8517 21.2366 32.8383 21.2099C32.8236 21.1832 32.8096 21.1564 32.7935 21.131C32.7782 21.1043 32.7621 21.0789 32.7454 21.0535C32.7287 21.0281 32.7113 21.0027 32.692 20.9773C32.6592 20.9299 32.6218 20.8851 32.583 20.843C32.5603 20.8163 32.5349 20.7895 32.5095 20.7641C32.4841 20.7387 32.4574 20.7147 32.4307 20.6906C32.3872 20.6519 32.3424 20.6158 32.2963 20.5817C32.2709 20.5623 32.2469 20.5456 32.2201 20.5282C32.1947 20.5115 32.1693 20.4955 32.1426 20.4801C32.1112 20.4607 32.0785 20.4427 32.0444 20.426C32.0237 20.4166 32.0029 20.4053 31.9829 20.3959C31.9288 20.3705 31.8726 20.3478 31.8172 20.3284C31.7336 20.2983 31.6481 20.2749 31.5599 20.2596C31.5017 20.2489 31.4436 20.2402 31.3848 20.2342C31.2671 20.2235 31.1489 20.2235 31.0319 20.2342C30.9724 20.2402 30.9143 20.2489 30.8568 20.2596C30.7987 20.2703 30.7405 20.2836 30.6837 20.3017C30.657 20.309 30.6303 20.3184 30.6029 20.3271C30.5146 20.3585 30.4278 20.3959 30.3429 20.4407C30.2934 20.4674 30.244 20.4962 30.1965 20.5289C30.1738 20.5436 30.1517 20.5576 30.1304 20.575C30.1257 20.5777 30.121 20.581 30.1157 20.5844C30.0709 20.6171 30.0274 20.6519 29.986 20.6893C29.9593 20.7133 29.9325 20.7374 29.9072 20.7628L20.7621 29.9078C20.2322 30.4385 19.6147 30.8501 18.941 31.1281C18.2687 31.4062 17.5409 31.5525 16.7911 31.5525C15.2901 31.5525 13.88 30.9684 12.8194 29.9078C11.7588 28.8472 11.1747 27.4358 11.1747 25.9361C11.1747 24.4351 11.7588 23.0243 12.8194 21.9637L21.9644 12.8187C22.6815 12.1016 22.6815 10.9348 21.9644 10.2164C21.246 9.49927 20.0791 9.49793 19.362 10.2164L10.215 19.3614Z" fill="#0E0E0C"/>
<path d="M0 15.5955V32.4039C0 41.0183 6.9824 48.0007 15.5955 48.0007H32.4039C41.0169 48.0007 47.9993 41.0183 47.9993 32.4039V15.5955C48 6.9824 41.0169 0 32.4039 0H15.5955C6.9824 0 0 6.9824 0 15.5955ZM7.54511 16.6915L16.6915 7.54645C18.8802 5.35643 22.4442 5.35643 24.6329 7.54645C25.35 8.26353 25.8311 9.12698 26.0791 10.0412C29.4667 8.59969 33.3923 8.61506 36.8434 10.2651C38.182 10.9033 39.3963 11.7634 40.4536 12.8207C41.5095 13.8779 42.3689 15.0916 43.0078 16.4282C45.3916 21.4177 44.3658 27.3983 40.4536 31.3092L31.3085 40.4549C30.2132 41.5496 28.775 42.0969 27.3368 42.0969C25.898 42.0969 24.4598 41.5489 23.3651 40.4549V40.4536C22.648 39.7365 22.1669 38.873 21.9189 37.9575C20.2923 38.6525 18.54 39.008 16.777 39.008C14.8697 39.008 12.9483 38.5923 11.1546 37.7349C9.81733 37.0967 8.60303 36.2366 7.54578 35.1793C6.48786 34.1221 5.62909 32.9091 4.99154 31.5718C2.60704 26.5823 3.63422 20.6024 7.54511 16.6915Z" fill="#004FFC"/>
</g>
<path d="M69.8688 38.4611C67.744 38.4611 65.6832 38.1795 63.6864 37.6163C61.7152 37.0275 60.128 36.2723 58.9248 35.3507L61.0368 30.6659C62.1888 31.5107 63.5584 32.1891 65.1456 32.7011C66.7328 33.2131 68.32 33.4691 69.9072 33.4691C71.6736 33.4691 72.9792 33.2131 73.824 32.7011C74.6688 32.1635 75.0912 31.4595 75.0912 30.5891C75.0912 29.9491 74.8352 29.4243 74.3232 29.0147C73.8368 28.5795 73.1968 28.2339 72.4032 27.9779C71.6352 27.7219 70.5856 27.4403 69.2544 27.1331C67.2064 26.6467 65.5296 26.1603 64.224 25.6739C62.9184 25.1875 61.792 24.4067 60.8448 23.3315C59.9232 22.2563 59.4624 20.8227 59.4624 19.0307C59.4624 17.4691 59.8848 16.0611 60.7296 14.8067C61.5744 13.5267 62.8416 12.5155 64.5312 11.7731C66.2464 11.0307 68.3328 10.6595 70.7904 10.6595C72.5056 10.6595 74.1824 10.8643 75.8208 11.2739C77.4592 11.6835 78.8928 12.2723 80.1216 13.0403L78.2016 17.7635C75.7184 16.3555 73.2352 15.6515 70.752 15.6515C69.0112 15.6515 67.7184 15.9331 66.8736 16.4963C66.0544 17.0595 65.6448 17.8019 65.6448 18.7235C65.6448 19.6451 66.1184 20.3363 67.0656 20.7971C68.0384 21.2323 69.5104 21.6675 71.4816 22.1027C73.5296 22.5891 75.2064 23.0755 76.512 23.5619C77.8176 24.0483 78.9312 24.8163 79.8528 25.8659C80.8 26.9155 81.2736 28.3363 81.2736 30.1283C81.2736 31.6643 80.8384 33.0723 79.968 34.3523C79.1232 35.6067 77.8432 36.6051 76.128 37.3475C74.4128 38.0899 72.3264 38.4611 69.8688 38.4611ZM98.1435 37.0019C97.5547 37.4371 96.8251 37.7699 95.9547 38.0003C95.1099 38.2051 94.2267 38.3075 93.3051 38.3075C90.8219 38.3075 88.9147 37.6803 87.5835 36.4259C86.2523 35.1715 85.5867 33.3283 85.5867 30.8963V12.7715H91.5771V17.8019H96.6843V22.4099H91.5771V30.8195C91.5771 31.6899 91.7947 32.3683 92.2299 32.8547C92.6651 33.3155 93.2923 33.5459 94.1115 33.5459C95.0331 33.5459 95.8523 33.2899 96.5691 32.7779L98.1435 37.0019ZM122.456 17.3411V38.0003H116.734V35.6195C115.249 37.4115 113.099 38.3075 110.283 38.3075C108.337 38.3075 106.571 37.8723 104.984 37.0019C103.422 36.1315 102.193 34.8899 101.297 33.2771C100.401 31.6643 99.9534 29.7955 99.9534 27.6707C99.9534 25.5459 100.401 23.6771 101.297 22.0643C102.193 20.4515 103.422 19.2099 104.984 18.3395C106.571 17.4691 108.337 17.0339 110.283 17.0339C112.92 17.0339 114.981 17.8659 116.465 19.5299V17.3411H122.456ZM111.32 33.3923C112.83 33.3923 114.085 32.8803 115.083 31.8563C116.081 30.8067 116.581 29.4115 116.581 27.6707C116.581 25.9299 116.081 24.5475 115.083 23.5235C114.085 22.4739 112.83 21.9491 111.32 21.9491C109.784 21.9491 108.517 22.4739 107.518 23.5235C106.52 24.5475 106.021 25.9299 106.021 27.6707C106.021 29.4115 106.52 30.8067 107.518 31.8563C108.517 32.8803 109.784 33.3923 111.32 33.3923ZM138.586 38.3075C136.384 38.3075 134.4 37.8595 132.634 36.9635C130.893 36.0419 129.524 34.7747 128.525 33.1619C127.552 31.5491 127.066 29.7187 127.066 27.6707C127.066 25.6227 127.552 23.7923 128.525 22.1795C129.524 20.5667 130.893 19.3123 132.634 18.4163C134.4 17.4947 136.384 17.0339 138.586 17.0339C140.762 17.0339 142.656 17.4947 144.269 18.4163C145.908 19.3123 147.098 20.6051 147.84 22.2947L143.194 24.7907C142.119 22.8963 140.57 21.9491 138.548 21.9491C136.986 21.9491 135.693 22.4611 134.669 23.4851C133.645 24.5091 133.133 25.9043 133.133 27.6707C133.133 29.4371 133.645 30.8323 134.669 31.8563C135.693 32.8803 136.986 33.3923 138.548 33.3923C140.596 33.3923 142.144 32.4451 143.194 30.5507L147.84 33.0851C147.098 34.7235 145.908 36.0035 144.269 36.9251C142.656 37.8467 140.762 38.3075 138.586 38.3075ZM160.61 29.8979L157.73 32.7395V38.0003H151.739V9.5075H157.73V25.6355L166.485 17.3411H173.627L165.026 26.0963L174.395 38.0003H167.138L160.61 29.8979ZM185.101 38.3075C182.771 38.3075 180.953 37.6931 179.648 36.4643C178.342 35.2099 177.689 33.4435 177.689 31.1651V9.5075H183.68V30.8195C183.68 31.6899 183.897 32.3683 184.333 32.8547C184.793 33.3155 185.433 33.5459 186.253 33.5459C186.56 33.5459 186.867 33.5075 187.174 33.4307C187.507 33.3539 187.763 33.2643 187.942 33.1619L188.211 37.8083C187.213 38.1411 186.176 38.3075 185.101 38.3075ZM212.565 17.3411V34.5443C212.565 38.3331 211.605 41.1491 209.685 42.9923C207.765 44.8355 204.974 45.7571 201.314 45.7571C199.368 45.7571 197.525 45.5139 195.784 45.0275C194.069 44.5411 192.622 43.8371 191.445 42.9155L193.826 38.6147C194.696 39.3315 195.758 39.8947 197.013 40.3043C198.267 40.7139 199.534 40.9187 200.814 40.9187C202.811 40.9187 204.27 40.4579 205.192 39.5363C206.114 38.6147 206.574 37.2067 206.574 35.3123V34.6211C205.806 35.3891 204.898 35.9779 203.848 36.3875C202.798 36.7971 201.672 37.0019 200.469 37.0019C197.755 37.0019 195.605 36.2339 194.018 34.6979C192.43 33.1363 191.637 30.8067 191.637 27.7091V17.3411H197.627V26.8259C197.627 30.1795 199.022 31.8563 201.813 31.8563C203.246 31.8563 204.398 31.3955 205.269 30.4739C206.139 29.5267 206.574 28.1315 206.574 26.2883V17.3411H212.565Z" fill="#0E0E0C"/>
<defs>
<clipPath id="clip0_653_962">
<rect width="48" height="48.0007" fill="white"/>
</clipPath>
</defs>
</svg>
