<svg width="213" height="48" viewBox="0 0 213 48" fill="none" xmlns="http://www.w3.org/2000/svg">
<g clip-path="url(#clip0_1055_2556)">
<path d="M26.0336 35.1807C25.3166 35.8991 25.3166 37.066 26.0336 37.7844C26.7521 38.5015 27.9203 38.5015 28.6373 37.7844L37.7824 28.6381C40.5652 25.8566 41.2956 21.6035 39.5988 18.0549C39.1464 17.1045 38.5349 16.2418 37.7824 15.4899C37.0299 14.7368 36.1664 14.1259 35.2161 13.6721C33.9403 13.0627 32.575 12.7666 31.2183 12.7666C28.8011 12.7666 26.4159 13.7062 24.6336 15.4886L15.4885 24.6343C15.1404 24.9825 14.9492 25.4443 14.9492 25.9368C14.9492 26.428 15.1404 26.8898 15.4885 27.238C15.663 27.4111 15.8648 27.5461 16.0847 27.6383C16.3045 27.7292 16.5431 27.7773 16.7897 27.7773C17.2823 27.7773 17.7441 27.5848 18.0909 27.238L27.2373 18.093C27.3435 17.9867 27.4538 17.8851 27.5661 17.7895C27.5975 17.7615 27.6302 17.7354 27.663 17.7087C27.6991 17.6786 27.7365 17.6492 27.7739 17.6205C27.8488 17.5623 27.9236 17.5069 28.0011 17.4534C30.0688 16.0119 32.8991 16.1241 34.8499 17.7895C34.9621 17.8851 35.0724 17.9867 35.1787 18.093C37.3687 20.283 37.3687 23.8457 35.18 26.0357L26.0336 35.1807Z" fill="#0E0E0C"/>
<path d="M10.214 19.3611C7.43257 22.1425 6.70212 26.3956 8.3976 29.9436C8.62348 30.4188 8.8908 30.8725 9.19488 31.3003C9.49829 31.7293 9.83979 32.1336 10.2154 32.5099C10.9679 33.2624 11.8313 33.8725 12.7816 34.3277C14.0561 34.9371 15.4228 35.2325 16.7794 35.2325C19.1953 35.2325 21.5818 34.2929 23.3642 32.5105L32.5092 23.3655C32.5807 23.294 32.6455 23.2165 32.7037 23.1356C32.7184 23.1163 32.7317 23.0969 32.7438 23.0775C32.7605 23.0521 32.7779 23.0267 32.7919 23C32.8079 22.9732 32.822 22.9465 32.8367 22.9204C32.85 22.8937 32.8634 22.867 32.8768 22.8396C32.8995 22.7915 32.9202 22.7427 32.9369 22.6932C32.9429 22.6785 32.9476 22.6645 32.9516 22.6498C32.9677 22.605 32.9804 22.5602 32.9917 22.5141C32.9931 22.5108 32.9944 22.5068 32.9944 22.5034C33.0017 22.4747 33.0078 22.4453 33.0138 22.4165C33.0198 22.3851 33.0258 22.3537 33.0298 22.321C33.0331 22.2942 33.0372 22.2675 33.0392 22.2414C33.0452 22.1833 33.0479 22.1238 33.0479 22.065C33.0479 22.0055 33.0452 21.9467 33.0392 21.8886C33.0365 21.8619 33.0331 21.8345 33.0298 21.8077C33.0265 21.7763 33.0205 21.7449 33.0138 21.7148C33.0078 21.6861 33.0017 21.6567 32.9944 21.6279C32.9824 21.5745 32.9663 21.523 32.9496 21.4722C32.9469 21.4635 32.9436 21.4542 32.9403 21.4442C32.9222 21.392 32.9015 21.3412 32.8774 21.2905C32.8641 21.2637 32.8507 21.2363 32.8373 21.2096C32.8226 21.1829 32.8086 21.1561 32.7926 21.1307C32.7772 21.104 32.7612 21.0786 32.7444 21.0532C32.7277 21.0278 32.7104 21.0024 32.691 20.977C32.6582 20.9296 32.6208 20.8848 32.582 20.8427C32.5593 20.816 32.5339 20.7892 32.5085 20.7638C32.4831 20.7384 32.4564 20.7144 32.4297 20.6903C32.3862 20.6516 32.3415 20.6155 32.2953 20.5814C32.27 20.562 32.2459 20.5453 32.2192 20.5279C32.1938 20.5112 32.1684 20.4952 32.1416 20.4798C32.1102 20.4604 32.0775 20.4424 32.0434 20.4257C32.0227 20.4163 32.002 20.405 31.9819 20.3956C31.9278 20.3702 31.8716 20.3475 31.8162 20.3281C31.7326 20.298 31.6471 20.2746 31.5589 20.2593C31.5007 20.2486 31.4426 20.2399 31.3838 20.2339C31.2662 20.2232 31.1479 20.2232 31.0309 20.2339C30.9714 20.2399 30.9133 20.2486 30.8558 20.2593C30.7977 20.27 30.7395 20.2833 30.6827 20.3014C30.656 20.3087 30.6293 20.3181 30.6019 20.3268C30.5137 20.3582 30.4268 20.3956 30.3419 20.4404C30.2925 20.4671 30.243 20.4958 30.1955 20.5286C30.1728 20.5433 30.1508 20.5573 30.1294 20.5747C30.1247 20.5774 30.12 20.5807 30.1147 20.5841C30.0699 20.6168 30.0265 20.6516 29.985 20.689C29.9583 20.713 29.9316 20.7371 29.9062 20.7625L20.7612 29.9075C20.2312 30.4381 19.6137 30.8498 18.94 31.1278C18.2677 31.4058 17.5399 31.5522 16.7901 31.5522C15.2891 31.5522 13.879 30.9681 12.8184 29.9075C11.7578 28.8469 11.1737 27.4355 11.1737 25.9358C11.1737 24.4348 11.7578 23.024 12.8184 21.9634L21.9634 12.8184C22.6805 12.1013 22.6805 10.9345 21.9634 10.2161C21.245 9.49896 20.0781 9.49763 19.3611 10.2161L10.214 19.3611Z" fill="#0E0E0C"/>
<path d="M0 15.5955V32.4039C0 41.0183 6.9824 48.0007 15.5955 48.0007H32.4039C41.0169 48.0007 47.9993 41.0183 47.9993 32.4039V15.5955C48 6.9824 41.0169 0 32.4039 0H15.5955C6.9824 0 0 6.9824 0 15.5955ZM7.54511 16.6915L16.6915 7.54645C18.8802 5.35643 22.4442 5.35643 24.6329 7.54645C25.35 8.26353 25.8311 9.12698 26.0791 10.0412C29.4667 8.59969 33.3923 8.61506 36.8434 10.2651C38.182 10.9033 39.3963 11.7634 40.4536 12.8207C41.5095 13.8779 42.3689 15.0916 43.0078 16.4282C45.3916 21.4177 44.3658 27.3983 40.4536 31.3092L31.3085 40.4549C30.2132 41.5496 28.775 42.0969 27.3368 42.0969C25.898 42.0969 24.4598 41.5489 23.3651 40.4549V40.4536C22.648 39.7365 22.1669 38.873 21.9189 37.9575C20.2923 38.6525 18.54 39.008 16.777 39.008C14.8697 39.008 12.9483 38.5923 11.1546 37.7349C9.81733 37.0967 8.60303 36.2366 7.54578 35.1793C6.48786 34.1221 5.62909 32.9091 4.99154 31.5718C2.60704 26.5823 3.63422 20.6024 7.54511 16.6915Z" fill="#7444FD"/>
</g>
<path d="M69.8693 38.4611C67.7445 38.4611 65.6837 38.1795 63.6869 37.6163C61.7157 37.0275 60.1285 36.2723 58.9253 35.3507L61.0373 30.6659C62.1893 31.5107 63.5589 32.1891 65.1461 32.7011C66.7333 33.2131 68.3205 33.4691 69.9077 33.4691C71.6741 33.4691 72.9797 33.2131 73.8245 32.7011C74.6693 32.1635 75.0917 31.4595 75.0917 30.5891C75.0917 29.9491 74.8357 29.4243 74.3237 29.0147C73.8373 28.5795 73.1973 28.2339 72.4037 27.9779C71.6357 27.7219 70.5861 27.4403 69.2549 27.1331C67.2069 26.6467 65.5301 26.1603 64.2245 25.6739C62.9189 25.1875 61.7925 24.4067 60.8453 23.3315C59.9237 22.2563 59.4629 20.8227 59.4629 19.0307C59.4629 17.4691 59.8853 16.0611 60.7301 14.8067C61.5749 13.5267 62.8421 12.5155 64.5317 11.7731C66.2469 11.0307 68.3333 10.6595 70.7909 10.6595C72.5061 10.6595 74.1829 10.8643 75.8213 11.2739C77.4597 11.6835 78.8933 12.2723 80.1221 13.0403L78.2021 17.7635C75.7189 16.3555 73.2357 15.6515 70.7525 15.6515C69.0117 15.6515 67.7189 15.9331 66.8741 16.4963C66.0549 17.0595 65.6453 17.8019 65.6453 18.7235C65.6453 19.6451 66.1189 20.3363 67.0661 20.7971C68.0389 21.2323 69.5109 21.6675 71.4821 22.1027C73.5301 22.5891 75.2069 23.0755 76.5125 23.5619C77.8181 24.0483 78.9317 24.8163 79.8533 25.8659C80.8005 26.9155 81.2741 28.3363 81.2741 30.1283C81.2741 31.6643 80.8389 33.0723 79.9685 34.3523C79.1237 35.6067 77.8437 36.6051 76.1285 37.3475C74.4133 38.0899 72.3269 38.4611 69.8693 38.4611ZM98.144 37.0019C97.5552 37.4371 96.8256 37.7699 95.9552 38.0003C95.1104 38.2051 94.2272 38.3075 93.3056 38.3075C90.8224 38.3075 88.9152 37.6803 87.584 36.4259C86.2528 35.1715 85.5872 33.3283 85.5872 30.8963V12.7715H91.5776V17.8019H96.6848V22.4099H91.5776V30.8195C91.5776 31.6899 91.7952 32.3683 92.2304 32.8547C92.6656 33.3155 93.2928 33.5459 94.112 33.5459C95.0336 33.5459 95.8528 33.2899 96.5696 32.7779L98.144 37.0019ZM122.456 17.3411V38.0003H116.735V35.6195C115.25 37.4115 113.1 38.3075 110.284 38.3075C108.338 38.3075 106.572 37.8723 104.984 37.0019C103.423 36.1315 102.194 34.8899 101.298 33.2771C100.402 31.6643 99.9539 29.7955 99.9539 27.6707C99.9539 25.5459 100.402 23.6771 101.298 22.0643C102.194 20.4515 103.423 19.2099 104.984 18.3395C106.572 17.4691 108.338 17.0339 110.284 17.0339C112.92 17.0339 114.981 17.8659 116.466 19.5299V17.3411H122.456ZM111.32 33.3923C112.831 33.3923 114.085 32.8803 115.084 31.8563C116.082 30.8067 116.581 29.4115 116.581 27.6707C116.581 25.9299 116.082 24.5475 115.084 23.5235C114.085 22.4739 112.831 21.9491 111.32 21.9491C109.784 21.9491 108.517 22.4739 107.519 23.5235C106.52 24.5475 106.021 25.9299 106.021 27.6707C106.021 29.4115 106.52 30.8067 107.519 31.8563C108.517 32.8803 109.784 33.3923 111.32 33.3923ZM138.586 38.3075C136.385 38.3075 134.401 37.8595 132.634 36.9635C130.894 36.0419 129.524 34.7747 128.526 33.1619C127.553 31.5491 127.066 29.7187 127.066 27.6707C127.066 25.6227 127.553 23.7923 128.526 22.1795C129.524 20.5667 130.894 19.3123 132.634 18.4163C134.401 17.4947 136.385 17.0339 138.586 17.0339C140.762 17.0339 142.657 17.4947 144.27 18.4163C145.908 19.3123 147.098 20.6051 147.841 22.2947L143.194 24.7907C142.119 22.8963 140.57 21.9491 138.548 21.9491C136.986 21.9491 135.694 22.4611 134.67 23.4851C133.646 24.5091 133.134 25.9043 133.134 27.6707C133.134 29.4371 133.646 30.8323 134.67 31.8563C135.694 32.8803 136.986 33.3923 138.548 33.3923C140.596 33.3923 142.145 32.4451 143.194 30.5507L147.841 33.0851C147.098 34.7235 145.908 36.0035 144.27 36.9251C142.657 37.8467 140.762 38.3075 138.586 38.3075ZM160.61 29.8979L157.73 32.7395V38.0003H151.74V9.50753H157.73V25.6355L166.485 17.3411H173.628L165.026 26.0963L174.396 38.0003H167.138L160.61 29.8979ZM185.101 38.3075C182.772 38.3075 180.954 37.6931 179.648 36.4643C178.343 35.2099 177.69 33.4435 177.69 31.1651V9.50753H183.68V30.8195C183.68 31.6899 183.898 32.3683 184.333 32.8547C184.794 33.3155 185.434 33.5459 186.253 33.5459C186.56 33.5459 186.868 33.5075 187.175 33.4307C187.508 33.3539 187.764 33.2643 187.943 33.1619L188.212 37.8083C187.213 38.1411 186.176 38.3075 185.101 38.3075ZM212.565 17.3411V34.5443C212.565 38.3331 211.605 41.1491 209.685 42.9923C207.765 44.8355 204.975 45.7571 201.314 45.7571C199.368 45.7571 197.525 45.5139 195.784 45.0275C194.069 44.5411 192.623 43.8371 191.445 42.9155L193.826 38.6147C194.696 39.3315 195.759 39.8947 197.013 40.3043C198.268 40.7139 199.535 40.9187 200.815 40.9187C202.812 40.9187 204.271 40.4579 205.192 39.5363C206.114 38.6147 206.575 37.2067 206.575 35.3123V34.6211C205.807 35.3891 204.898 35.9779 203.848 36.3875C202.799 36.7971 201.672 37.0019 200.469 37.0019C197.756 37.0019 195.605 36.2339 194.018 34.6979C192.431 33.1363 191.637 30.8067 191.637 27.7091V17.3411H197.628V26.8259C197.628 30.1795 199.023 31.8563 201.813 31.8563C203.247 31.8563 204.399 31.3955 205.269 30.4739C206.14 29.5267 206.575 28.1315 206.575 26.2883V17.3411H212.565Z" fill="#0E0E0C"/>
<defs>
<clipPath id="clip0_1055_2556">
<rect width="48" height="48.0007" fill="white"/>
</clipPath>
</defs>
</svg>
