<svg width="216" height="48" viewBox="0 0 216 48" fill="none" xmlns="http://www.w3.org/2000/svg">
<g clip-path="url(#clip0_1055_248)">
<path d="M26.0342 35.1807C25.3171 35.8991 25.3171 37.066 26.0342 37.7844C26.7526 38.5015 27.9208 38.5015 28.6379 37.7844L37.7829 28.6381C40.5657 25.8566 41.2962 21.6035 39.5994 18.0549C39.1469 17.1045 38.5354 16.2418 37.7829 15.4899C37.0304 14.7368 36.167 14.1259 35.2166 13.6721C33.9409 13.0627 32.5755 12.7666 31.2189 12.7666C28.8016 12.7666 26.4165 13.7062 24.6341 15.4886L15.4891 24.6343C15.1409 24.9825 14.9498 25.4443 14.9498 25.9368C14.9498 26.428 15.1409 26.8898 15.4891 27.238C15.6635 27.4111 15.8653 27.5461 16.0852 27.6383C16.3051 27.7292 16.5437 27.7773 16.7903 27.7773C17.2828 27.7773 17.7446 27.5848 18.0914 27.238L27.2378 18.093C27.3441 17.9867 27.4543 17.8851 27.5666 17.7895C27.598 17.7615 27.6308 17.7354 27.6635 17.7087C27.6996 17.6786 27.737 17.6492 27.7745 17.6205C27.8493 17.5623 27.9242 17.5069 28.0017 17.4534C30.0694 16.0119 32.8996 16.1241 34.8504 17.7895C34.9627 17.8851 35.073 17.9867 35.1792 18.093C37.3692 20.283 37.3692 23.8457 35.1806 26.0357L26.0342 35.1807Z" fill="white"/>
<path d="M10.215 19.3611C7.43355 22.1425 6.70309 26.3956 8.39857 29.9436C8.62446 30.4188 8.89178 30.8725 9.19586 31.3003C9.49926 31.7293 9.84076 32.1336 10.2163 32.5099C10.9689 33.2624 11.8323 33.8725 12.7826 34.3277C14.0571 34.9371 15.4237 35.2325 16.7804 35.2325C19.1963 35.2325 21.5828 34.2929 23.3652 32.5105L32.5102 23.3655C32.5817 23.294 32.6465 23.2165 32.7047 23.1356C32.7194 23.1163 32.7327 23.0969 32.7448 23.0775C32.7615 23.0521 32.7788 23.0267 32.7929 23C32.8089 22.9732 32.8229 22.9465 32.8376 22.9204C32.851 22.8937 32.8644 22.867 32.8777 22.8396C32.9005 22.7915 32.9212 22.7427 32.9379 22.6932C32.9439 22.6785 32.9486 22.6645 32.9526 22.6498C32.9686 22.605 32.9813 22.5602 32.9927 22.5141C32.994 22.5108 32.9954 22.5068 32.9954 22.5034C33.0027 22.4747 33.0087 22.4453 33.0147 22.4165C33.0208 22.3851 33.0268 22.3537 33.0308 22.321C33.0341 22.2942 33.0381 22.2675 33.0401 22.2414C33.0462 22.1833 33.0488 22.1238 33.0488 22.065C33.0488 22.0055 33.0462 21.9467 33.0401 21.8886C33.0375 21.8619 33.0341 21.8345 33.0308 21.8077C33.0274 21.7763 33.0214 21.7449 33.0147 21.7148C33.0087 21.6861 33.0027 21.6567 32.9954 21.6279C32.9833 21.5745 32.9673 21.523 32.9506 21.4722C32.9479 21.4635 32.9446 21.4542 32.9412 21.4442C32.9232 21.392 32.9025 21.3412 32.8784 21.2905C32.865 21.2637 32.8517 21.2363 32.8383 21.2096C32.8236 21.1829 32.8096 21.1561 32.7935 21.1307C32.7782 21.104 32.7621 21.0786 32.7454 21.0532C32.7287 21.0278 32.7113 21.0024 32.692 20.977C32.6592 20.9296 32.6218 20.8848 32.583 20.8427C32.5603 20.816 32.5349 20.7892 32.5095 20.7638C32.4841 20.7384 32.4574 20.7144 32.4307 20.6903C32.3872 20.6516 32.3424 20.6155 32.2963 20.5814C32.2709 20.562 32.2469 20.5453 32.2201 20.5279C32.1947 20.5112 32.1693 20.4952 32.1426 20.4798C32.1112 20.4604 32.0785 20.4424 32.0444 20.4257C32.0237 20.4163 32.0029 20.405 31.9829 20.3956C31.9288 20.3702 31.8726 20.3475 31.8172 20.3281C31.7336 20.298 31.6481 20.2746 31.5599 20.2593C31.5017 20.2486 31.4436 20.2399 31.3848 20.2339C31.2671 20.2232 31.1489 20.2232 31.0319 20.2339C30.9724 20.2399 30.9143 20.2486 30.8568 20.2593C30.7987 20.27 30.7405 20.2833 30.6837 20.3014C30.657 20.3087 30.6303 20.3181 30.6029 20.3268C30.5146 20.3582 30.4278 20.3956 30.3429 20.4404C30.2934 20.4671 30.244 20.4958 30.1965 20.5286C30.1738 20.5433 30.1517 20.5573 30.1304 20.5747C30.1257 20.5774 30.121 20.5807 30.1157 20.5841C30.0709 20.6168 30.0274 20.6516 29.986 20.689C29.9593 20.713 29.9325 20.7371 29.9072 20.7625L20.7621 29.9075C20.2322 30.4381 19.6147 30.8498 18.941 31.1278C18.2687 31.4058 17.5409 31.5522 16.7911 31.5522C15.2901 31.5522 13.88 30.9681 12.8194 29.9075C11.7588 28.8469 11.1747 27.4355 11.1747 25.9358C11.1747 24.4348 11.7588 23.024 12.8194 21.9634L21.9644 12.8184C22.6815 12.1013 22.6815 10.9345 21.9644 10.2161C21.246 9.49896 20.0791 9.49763 19.362 10.2161L10.215 19.3611Z" fill="white"/>
<path d="M0 15.5955V32.4039C0 41.0183 6.9824 48.0007 15.5955 48.0007H32.4039C41.0169 48.0007 47.9993 41.0183 47.9993 32.4039V15.5955C48 6.9824 41.0169 0 32.4039 0H15.5955C6.9824 0 0 6.9824 0 15.5955ZM7.54511 16.6915L16.6915 7.54645C18.8802 5.35643 22.4442 5.35643 24.6329 7.54645C25.35 8.26353 25.8311 9.12698 26.0791 10.0412C29.4667 8.59969 33.3923 8.61506 36.8434 10.2651C38.182 10.9033 39.3963 11.7634 40.4536 12.8207C41.5095 13.8779 42.3689 15.0916 43.0078 16.4282C45.3916 21.4177 44.3658 27.3983 40.4536 31.3092L31.3085 40.4549C30.2132 41.5496 28.775 42.0969 27.3368 42.0969C25.898 42.0969 24.4598 41.5489 23.3651 40.4549V40.4536C22.648 39.7365 22.1669 38.873 21.9189 37.9575C20.2923 38.6525 18.54 39.008 16.777 39.008C14.8697 39.008 12.9483 38.5923 11.1546 37.7349C9.81733 37.0967 8.60303 36.2366 7.54578 35.1793C6.48786 34.1221 5.62909 32.9091 4.99154 31.5718C2.60704 26.5823 3.63422 20.6024 7.54511 16.6915Z" fill="white"/>
</g>
<path d="M69.8692 38.4608C67.7444 38.4608 65.6836 38.1792 63.6868 37.616C61.7156 37.0272 60.1284 36.272 58.9252 35.3504L61.0372 30.6656C62.1892 31.5104 63.5588 32.1888 65.146 32.7008C66.7332 33.2128 68.3204 33.4688 69.9076 33.4688C71.674 33.4688 72.9796 33.2128 73.8244 32.7008C74.6692 32.1632 75.0916 31.4592 75.0916 30.5888C75.0916 29.9488 74.8356 29.424 74.3236 29.0144C73.8372 28.5792 73.1972 28.2336 72.4036 27.9776C71.6356 27.7216 70.586 27.44 69.2548 27.1328C67.2068 26.6464 65.53 26.16 64.2244 25.6736C62.9188 25.1872 61.7924 24.4064 60.8452 23.3312C59.9236 22.256 59.4628 20.8224 59.4628 19.0304C59.4628 17.4688 59.8852 16.0608 60.73 14.8064C61.5748 13.5264 62.842 12.5152 64.5316 11.7728C66.2468 11.0304 68.3332 10.6592 70.7908 10.6592C72.506 10.6592 74.1828 10.864 75.8212 11.2736C77.4596 11.6832 78.8932 12.272 80.122 13.04L78.202 17.7632C75.7188 16.3552 73.2356 15.6512 70.7524 15.6512C69.0116 15.6512 67.7188 15.9328 66.874 16.496C66.0548 17.0592 65.6452 17.8016 65.6452 18.7232C65.6452 19.6448 66.1188 20.336 67.066 20.7968C68.0388 21.232 69.5108 21.6672 71.482 22.1024C73.53 22.5888 75.2068 23.0752 76.5124 23.5616C77.818 24.048 78.9316 24.816 79.8532 25.8656C80.8004 26.9152 81.274 28.336 81.274 30.128C81.274 31.664 80.8388 33.072 79.9684 34.352C79.1236 35.6064 77.8436 36.6048 76.1284 37.3472C74.4132 38.0896 72.3268 38.4608 69.8692 38.4608ZM98.1439 37.0016C97.5551 37.4368 96.8255 37.7696 95.9551 38C95.1103 38.2048 94.2271 38.3072 93.3055 38.3072C90.8223 38.3072 88.9151 37.68 87.5839 36.4256C86.2527 35.1712 85.5871 33.328 85.5871 30.896V12.7712H91.5775V17.8016H96.6847V22.4096H91.5775V30.8192C91.5775 31.6896 91.7951 32.368 92.2303 32.8544C92.6655 33.3152 93.2927 33.5456 94.1119 33.5456C95.0335 33.5456 95.8527 33.2896 96.5695 32.7776L98.1439 37.0016ZM122.456 17.3408V38H116.735V35.6192C115.25 37.4112 113.099 38.3072 110.283 38.3072C108.338 38.3072 106.571 37.872 104.984 37.0016C103.423 36.1312 102.194 34.8896 101.298 33.2768C100.402 31.664 99.9538 29.7952 99.9538 27.6704C99.9538 25.5456 100.402 23.6768 101.298 22.064C102.194 20.4512 103.423 19.2096 104.984 18.3392C106.571 17.4688 108.338 17.0336 110.283 17.0336C112.92 17.0336 114.981 17.8656 116.466 19.5296V17.3408H122.456ZM111.32 33.392C112.831 33.392 114.085 32.88 115.083 31.856C116.082 30.8064 116.581 29.4112 116.581 27.6704C116.581 25.9296 116.082 24.5472 115.083 23.5232C114.085 22.4736 112.831 21.9488 111.32 21.9488C109.784 21.9488 108.517 22.4736 107.519 23.5232C106.52 24.5472 106.021 25.9296 106.021 27.6704C106.021 29.4112 106.52 30.8064 107.519 31.856C108.517 32.88 109.784 33.392 111.32 33.392ZM138.586 38.3072C136.385 38.3072 134.401 37.8592 132.634 36.9632C130.893 36.0416 129.524 34.7744 128.525 33.1616C127.553 31.5488 127.066 29.7184 127.066 27.6704C127.066 25.6224 127.553 23.792 128.525 22.1792C129.524 20.5664 130.893 19.312 132.634 18.416C134.401 17.4944 136.385 17.0336 138.586 17.0336C140.762 17.0336 142.657 17.4944 144.269 18.416C145.908 19.312 147.098 20.6048 147.841 22.2944L143.194 24.7904C142.119 22.896 140.57 21.9488 138.548 21.9488C136.986 21.9488 135.693 22.4608 134.669 23.4848C133.645 24.5088 133.133 25.904 133.133 27.6704C133.133 29.4368 133.645 30.832 134.669 31.856C135.693 32.88 136.986 33.392 138.548 33.392C140.596 33.392 142.145 32.4448 143.194 30.5504L147.841 33.0848C147.098 34.7232 145.908 36.0032 144.269 36.9248C142.657 37.8464 140.762 38.3072 138.586 38.3072ZM160.61 29.8976L157.73 32.7392V38H151.74V9.5072H157.73V25.6352L166.485 17.3408H173.628L165.026 26.096L174.396 38H167.138L160.61 29.8976ZM185.101 38.3072C182.771 38.3072 180.954 37.6928 179.648 36.464C178.343 35.2096 177.69 33.4432 177.69 31.1648V9.5072H183.68V30.8192C183.68 31.6896 183.898 32.368 184.333 32.8544C184.794 33.3152 185.434 33.5456 186.253 33.5456C186.56 33.5456 186.867 33.5072 187.175 33.4304C187.507 33.3536 187.763 33.264 187.943 33.1616L188.211 37.808C187.213 38.1408 186.176 38.3072 185.101 38.3072ZM212.565 17.3408V34.544C212.565 38.3328 211.605 41.1488 209.685 42.992C207.765 44.8352 204.975 45.7568 201.314 45.7568C199.368 45.7568 197.525 45.5136 195.784 45.0272C194.069 44.5408 192.623 43.8368 191.445 42.9152L193.826 38.6144C194.696 39.3312 195.759 39.8944 197.013 40.304C198.267 40.7136 199.535 40.9184 200.815 40.9184C202.811 40.9184 204.271 40.4576 205.192 39.536C206.114 38.6144 206.575 37.2064 206.575 35.312V34.6208C205.807 35.3888 204.898 35.9776 203.848 36.3872C202.799 36.7968 201.672 37.0016 200.469 37.0016C197.755 37.0016 195.605 36.2336 194.018 34.6976C192.431 33.136 191.637 30.8064 191.637 27.7088V17.3408H197.627V26.8256C197.627 30.1792 199.023 31.856 201.813 31.856C203.247 31.856 204.399 31.3952 205.269 30.4736C206.139 29.5264 206.575 28.1312 206.575 26.288V17.3408H212.565Z" fill="white"/>
<defs>
<clipPath id="clip0_1055_248">
<rect width="48" height="48.0007" fill="white"/>
</clipPath>
</defs>
</svg>
