<svg width="211" height="48" viewBox="0 0 211 48" fill="none" xmlns="http://www.w3.org/2000/svg">
<g clip-path="url(#clip0_1055_1812)">
<path d="M26.0336 35.1797C25.3166 35.8982 25.3166 37.065 26.0336 37.7834C26.7521 38.5005 27.9203 38.5005 28.6373 37.7834L37.7824 28.6371C40.5652 25.8556 41.2956 21.6026 39.5988 18.0539C39.1464 17.1036 38.5349 16.2408 37.7824 15.4889C37.0299 14.7358 36.1664 14.1249 35.2161 13.6712C33.9403 13.0617 32.575 12.7656 31.2183 12.7656C28.8011 12.7656 26.4159 13.7053 24.6336 15.4876L15.4885 24.6333C15.1404 24.9815 14.9492 25.4433 14.9492 25.9358C14.9492 26.427 15.1404 26.8888 15.4885 27.237C15.663 27.4101 15.8648 27.5451 16.0847 27.6373C16.3045 27.7282 16.5431 27.7763 16.7897 27.7763C17.2823 27.7763 17.7441 27.5838 18.0909 27.237L27.2373 18.092C27.3435 17.9857 27.4538 17.8841 27.5661 17.7886C27.5975 17.7605 27.6302 17.7344 27.663 17.7077C27.6991 17.6776 27.7365 17.6482 27.7739 17.6195C27.8488 17.5613 27.9236 17.5059 28.0011 17.4524C30.0688 16.0109 32.8991 16.1232 34.8499 17.7886C34.9621 17.8841 35.0724 17.9857 35.1787 18.092C37.3687 20.282 37.3687 23.8447 35.18 26.0347L26.0336 35.1797Z" fill="#0E0E0C"/>
<path d="M10.214 19.3611C7.43257 22.1425 6.70212 26.3956 8.3976 29.9436C8.62348 30.4188 8.8908 30.8725 9.19488 31.3003C9.49829 31.7293 9.83979 32.1336 10.2154 32.5099C10.9679 33.2624 11.8313 33.8725 12.7816 34.3277C14.0561 34.9371 15.4228 35.2325 16.7794 35.2325C19.1953 35.2325 21.5818 34.2929 23.3642 32.5105L32.5092 23.3655C32.5807 23.294 32.6455 23.2165 32.7037 23.1356C32.7184 23.1163 32.7317 23.0969 32.7438 23.0775C32.7605 23.0521 32.7779 23.0267 32.7919 23C32.8079 22.9732 32.822 22.9465 32.8367 22.9204C32.85 22.8937 32.8634 22.867 32.8768 22.8396C32.8995 22.7915 32.9202 22.7427 32.9369 22.6932C32.9429 22.6785 32.9476 22.6645 32.9516 22.6498C32.9677 22.605 32.9804 22.5602 32.9917 22.5141C32.9931 22.5108 32.9944 22.5068 32.9944 22.5034C33.0017 22.4747 33.0078 22.4453 33.0138 22.4165C33.0198 22.3851 33.0258 22.3537 33.0298 22.321C33.0331 22.2942 33.0372 22.2675 33.0392 22.2414C33.0452 22.1833 33.0479 22.1238 33.0479 22.065C33.0479 22.0055 33.0452 21.9467 33.0392 21.8886C33.0365 21.8619 33.0331 21.8345 33.0298 21.8077C33.0265 21.7763 33.0205 21.7449 33.0138 21.7148C33.0078 21.6861 33.0017 21.6567 32.9944 21.6279C32.9824 21.5745 32.9663 21.523 32.9496 21.4722C32.9469 21.4635 32.9436 21.4542 32.9403 21.4442C32.9222 21.392 32.9015 21.3412 32.8774 21.2905C32.8641 21.2637 32.8507 21.2363 32.8373 21.2096C32.8226 21.1829 32.8086 21.1561 32.7926 21.1307C32.7772 21.104 32.7612 21.0786 32.7444 21.0532C32.7277 21.0278 32.7104 21.0024 32.691 20.977C32.6582 20.9296 32.6208 20.8848 32.582 20.8427C32.5593 20.816 32.5339 20.7892 32.5085 20.7638C32.4831 20.7384 32.4564 20.7144 32.4297 20.6903C32.3862 20.6516 32.3415 20.6155 32.2953 20.5814C32.27 20.562 32.2459 20.5453 32.2192 20.5279C32.1938 20.5112 32.1684 20.4952 32.1416 20.4798C32.1102 20.4604 32.0775 20.4424 32.0434 20.4257C32.0227 20.4163 32.002 20.405 31.9819 20.3956C31.9278 20.3702 31.8716 20.3475 31.8162 20.3281C31.7326 20.298 31.6471 20.2746 31.5589 20.2593C31.5007 20.2486 31.4426 20.2399 31.3838 20.2339C31.2662 20.2232 31.1479 20.2232 31.0309 20.2339C30.9714 20.2399 30.9133 20.2486 30.8558 20.2593C30.7977 20.27 30.7395 20.2833 30.6827 20.3014C30.656 20.3087 30.6293 20.3181 30.6019 20.3268C30.5137 20.3582 30.4268 20.3956 30.3419 20.4404C30.2925 20.4671 30.243 20.4958 30.1955 20.5286C30.1728 20.5433 30.1508 20.5573 30.1294 20.5747C30.1247 20.5774 30.12 20.5807 30.1147 20.5841C30.0699 20.6168 30.0265 20.6516 29.985 20.689C29.9583 20.713 29.9316 20.7371 29.9062 20.7625L20.7612 29.9075C20.2312 30.4381 19.6137 30.8498 18.94 31.1278C18.2677 31.4058 17.5399 31.5522 16.7901 31.5522C15.2891 31.5522 13.879 30.9681 12.8184 29.9075C11.7578 28.8469 11.1737 27.4355 11.1737 25.9358C11.1737 24.4348 11.7578 23.024 12.8184 21.9634L21.9634 12.8184C22.6805 12.1013 22.6805 10.9345 21.9634 10.2161C21.245 9.49896 20.0781 9.49763 19.3611 10.2161L10.214 19.3611Z" fill="#0E0E0C"/>
<path d="M0 15.5955V32.4039C0 41.0183 6.9824 48.0007 15.5955 48.0007H32.4039C41.0169 48.0007 47.9993 41.0183 47.9993 32.4039V15.5955C48 6.9824 41.0169 0 32.4039 0H15.5955C6.9824 0 0 6.9824 0 15.5955ZM7.54511 16.6915L16.6915 7.54645C18.8802 5.35643 22.4442 5.35643 24.6329 7.54645C25.35 8.26353 25.8311 9.12698 26.0791 10.0412C29.4667 8.59969 33.3923 8.61506 36.8434 10.2651C38.182 10.9033 39.3963 11.7634 40.4536 12.8207C41.5095 13.8779 42.3689 15.0916 43.0078 16.4282C45.3916 21.4177 44.3658 27.3983 40.4536 31.3092L31.3085 40.4549C30.2132 41.5496 28.775 42.0969 27.3368 42.0969C25.898 42.0969 24.4598 41.5489 23.3651 40.4549V40.4536C22.648 39.7365 22.1669 38.873 21.9189 37.9575C20.2923 38.6525 18.54 39.008 16.777 39.008C14.8697 39.008 12.9483 38.5923 11.1546 37.7349C9.81733 37.0967 8.60303 36.2366 7.54578 35.1793C6.48786 34.1221 5.62909 32.9091 4.99154 31.5718C2.60704 26.5823 3.63422 20.6024 7.54511 16.6915Z" fill="#7444FD"/>
</g>
<path d="M68.2692 38.4613C66.1444 38.4613 64.0836 38.1797 62.0868 37.6165C60.1156 37.0277 58.5284 36.2725 57.3252 35.3509L59.4372 30.6661C60.5892 31.5109 61.9588 32.1893 63.546 32.7013C65.1332 33.2133 66.7204 33.4693 68.3076 33.4693C70.074 33.4693 71.3796 33.2133 72.2244 32.7013C73.0692 32.1637 73.4916 31.4597 73.4916 30.5893C73.4916 29.9493 73.2356 29.4245 72.7236 29.0149C72.2372 28.5797 71.5972 28.2341 70.8036 27.9781C70.0356 27.7221 68.986 27.4405 67.6548 27.1333C65.6068 26.6469 63.93 26.1605 62.6244 25.6741C61.3188 25.1877 60.1924 24.4069 59.2452 23.3317C58.3236 22.2565 57.8628 20.8229 57.8628 19.0309C57.8628 17.4693 58.2852 16.0613 59.13 14.8069C59.9748 13.5269 61.242 12.5157 62.9316 11.7733C64.6468 11.0309 66.7332 10.6597 69.1908 10.6597C70.906 10.6597 72.5828 10.8645 74.2212 11.2741C75.8596 11.6837 77.2932 12.2725 78.522 13.0405L76.602 17.7637C74.1188 16.3557 71.6356 15.6517 69.1524 15.6517C67.4116 15.6517 66.1188 15.9333 65.274 16.4965C64.4548 17.0597 64.0452 17.8021 64.0452 18.7237C64.0452 19.6453 64.5188 20.3365 65.466 20.7973C66.4388 21.2325 67.9108 21.6677 69.882 22.1029C71.93 22.5893 73.6068 23.0757 74.9124 23.5621C76.218 24.0485 77.3316 24.8165 78.2532 25.8661C79.2004 26.9157 79.674 28.3365 79.674 30.1285C79.674 31.6645 79.2388 33.0725 78.3684 34.3525C77.5236 35.6069 76.2436 36.6053 74.5284 37.3477C72.8132 38.0901 70.7268 38.4613 68.2692 38.4613ZM96.5439 37.0021C95.9551 37.4373 95.2255 37.7701 94.3551 38.0005C93.5103 38.2053 92.6271 38.3077 91.7055 38.3077C89.2223 38.3077 87.3151 37.6805 85.9839 36.4261C84.6527 35.1717 83.9871 33.3285 83.9871 30.8965V12.7717H89.9775V17.8021H95.0847V22.4101H89.9775V30.8197C89.9775 31.6901 90.1951 32.3685 90.6303 32.8549C91.0655 33.3157 91.6927 33.5461 92.5119 33.5461C93.4335 33.5461 94.2527 33.2901 94.9695 32.7781L96.5439 37.0021ZM120.856 17.3413V38.0005H115.135V35.6197C113.65 37.4117 111.499 38.3077 108.683 38.3077C106.738 38.3077 104.971 37.8725 103.384 37.0021C101.823 36.1317 100.594 34.8901 99.6978 33.2773C98.8018 31.6645 98.3538 29.7957 98.3538 27.6709C98.3538 25.5461 98.8018 23.6773 99.6978 22.0645C100.594 20.4517 101.823 19.2101 103.384 18.3397C104.971 17.4693 106.738 17.0341 108.683 17.0341C111.32 17.0341 113.381 17.8661 114.866 19.5301V17.3413H120.856ZM109.72 33.3925C111.231 33.3925 112.485 32.8805 113.483 31.8565C114.482 30.8069 114.981 29.4117 114.981 27.6709C114.981 25.9301 114.482 24.5477 113.483 23.5237C112.485 22.4741 111.231 21.9493 109.72 21.9493C108.184 21.9493 106.917 22.4741 105.919 23.5237C104.92 24.5477 104.421 25.9301 104.421 27.6709C104.421 29.4117 104.92 30.8069 105.919 31.8565C106.917 32.8805 108.184 33.3925 109.72 33.3925ZM136.986 38.3077C134.785 38.3077 132.801 37.8597 131.034 36.9637C129.294 36.0421 127.924 34.7749 126.926 33.1621C125.953 31.5493 125.466 29.7189 125.466 27.6709C125.466 25.6229 125.953 23.7925 126.926 22.1797C127.924 20.5669 129.294 19.3125 131.034 18.4165C132.801 17.4949 134.785 17.0341 136.986 17.0341C139.162 17.0341 141.057 17.4949 142.67 18.4165C144.308 19.3125 145.498 20.6053 146.241 22.2949L141.594 24.7909C140.519 22.8965 138.97 21.9493 136.948 21.9493C135.386 21.9493 134.094 22.4613 133.07 23.4853C132.046 24.5093 131.534 25.9045 131.534 27.6709C131.534 29.4373 132.046 30.8325 133.07 31.8565C134.094 32.8805 135.386 33.3925 136.948 33.3925C138.996 33.3925 140.545 32.4453 141.594 30.5509L146.241 33.0853C145.498 34.7237 144.308 36.0037 142.67 36.9253C141.057 37.8469 139.162 38.3077 136.986 38.3077ZM159.01 29.8981L156.13 32.7397V38.0005H150.14V9.50769H156.13V25.6357L164.885 17.3413H172.028L163.426 26.0965L172.796 38.0005H165.538L159.01 29.8981ZM183.501 38.3077C181.171 38.3077 179.354 37.6933 178.048 36.4645C176.743 35.2101 176.09 33.4437 176.09 31.1653V9.50769H182.08V30.8197C182.08 31.6901 182.298 32.3685 182.733 32.8549C183.194 33.3157 183.834 33.5461 184.653 33.5461C184.96 33.5461 185.267 33.5077 185.575 33.4309C185.907 33.3541 186.163 33.2645 186.343 33.1621L186.611 37.8085C185.613 38.1413 184.576 38.3077 183.501 38.3077ZM210.965 17.3413V34.5445C210.965 38.3333 210.005 41.1493 208.085 42.9925C206.165 44.8357 203.375 45.7573 199.714 45.7573C197.768 45.7573 195.925 45.5141 194.184 45.0277C192.469 44.5413 191.023 43.8373 189.845 42.9157L192.226 38.6149C193.096 39.3317 194.159 39.8949 195.413 40.3045C196.667 40.7141 197.935 40.9189 199.215 40.9189C201.211 40.9189 202.671 40.4581 203.592 39.5365C204.514 38.6149 204.975 37.2069 204.975 35.3125V34.6213C204.207 35.3893 203.298 35.9781 202.248 36.3877C201.199 36.7973 200.072 37.0021 198.869 37.0021C196.155 37.0021 194.005 36.2341 192.418 34.6981C190.831 33.1365 190.037 30.8069 190.037 27.7093V17.3413H196.027V26.8261C196.027 30.1797 197.423 31.8565 200.213 31.8565C201.647 31.8565 202.799 31.3957 203.669 30.4741C204.539 29.5269 204.975 28.1317 204.975 26.2885V17.3413H210.965Z" fill="#0E0E0C"/>
<defs>
<clipPath id="clip0_1055_1812">
<rect width="48" height="48.0007" fill="white"/>
</clipPath>
</defs>
</svg>
